<svg width="24" height="24" viewBox="0 0 24 24" fill="none" xmlns="http://www.w3.org/2000/svg">
<path d="M13.043 13.06C13.314 12.789 13.482 12.414 13.482 12C13.482 11.586 13.314 11.211 13.043 10.94C12.453 10.35 6.323 6.33997 6.323 6.33997C6.323 6.33997 10.323 12.47 10.913 13.06C11.185 13.334 11.562 13.504 11.978 13.504C12.394 13.504 12.771 13.334 13.043 13.06Z" fill="#1C2E45" fill-opacity="0.6"/>
<path d="M11.983 4V7H12.983V5.59C16.136 6.085 18.519 8.782 18.519 12.035C18.519 15.636 15.6 18.555 11.999 18.555C8.398 18.555 5.479 15.636 5.479 12.035C5.479 10.779 5.834 9.607 6.449 8.612L5.533 7.29C4.575 8.593 4 10.229 4 12C4 16.418 7.582 20 12 20C16.418 20 20 16.418 20 12C20 7.582 16.418 4 12 4C11.994 4 11.988 4 11.983 4Z" fill="#1C2E45" fill-opacity="0.6"/>
</svg>
