<svg width="24" height="24" viewBox="0 0 24 24" fill="none" xmlns="http://www.w3.org/2000/svg">
<path d="M17 4.8C17 4.3 16.6 4 16.2 4H16C14.3 4 13 5.9 13 8.7V9.6C13 10.6 13.5 11.5 14.4 12C14.1 13.2 14 14.5 14 14.5V18.5C14 19.3 14.7 20 15.5 20C16.3 20 17 19.3 17 18.5V14.5C17 14.1 16.9 13.1 16.7 12.2C16.9 12 17 11.8 17 11.5V4.8Z" fill="#1C2E45" fill-opacity="0.6"/>
<path d="M11.2 4H11V7.5C11 7.8 10.8 8 10.5 8C10.2 8 10 7.8 10 7.5V4.5C10 4.2 9.8 4 9.5 4C9.2 4 9 4.2 9 4.5V7.5C9 7.8 8.8 8 8.5 8C8.2 8 8 7.8 8 7.5V4H7.8C7.4 4 7 4.4 7 4.8V8.5C7 9.5 7.6 10.4 8.5 10.8C8.1 12.4 8 14.5 8 14.5V18.5C8 19.3 8.7 20 9.5 20C10.3 20 11 19.3 11 18.5V14.5C11 14 10.9 12.2 10.6 10.8C11.4 10.4 12 9.5 12 8.5V4.8C12 4.4 11.6 4 11.2 4V4Z" fill="#1C2E45" fill-opacity="0.6"/>
</svg>
